<svg xmlns="http://www.w3.org/2000/svg" xmlns:xlink="http://www.w3.org/1999/xlink" width="14.001602172851562" height="15" viewBox="0 0 14.001602172851562 15" fill="none"><path  id="cat-detail-dz" style="fill:#000000; opacity:1;" d="M9.5,2.84c-0.08673,0.41922 -0.21526,1.03174 -0.38936,1.83c-0.06677,0.30615 -0.14025,0.63963 -0.22064,1h3.1c0.23,0 0.46,0.04 0.68,0.12c1.05,0.39 1.59,1.57 1.21,2.64l-1.48,4.22c-0.5,1.41 -1.8,2.35 -3.27,2.35h-7.12c-1.11,0 -2.01,-0.92 -2.01,-2.06v-5.59c0,-0.93 0.72,-1.68 1.62,-1.7l0.38,-0.01c0.81,-0.02 1.56,-0.4 2.07,-1.04c0.48,-0.6 0.84,-1.45 1.08,-2.54l0.01,-0.04c0.39,-1.35 1.06,-2.02 2.4,-2.02c1.48,0 2.22,1.37 1.94,2.84zM3.59725,6.24566c-0.49453,0.24901 -1.01872,0.38036 -1.57257,0.39404l-0.37837,0.00995c-0.17699,0.00394 -0.32721,0.07054 -0.45066,0.19979c-0.13043,0.13657 -0.19565,0.30342 -0.19565,0.50056v5.59c0,0.2982 0.1014,0.55113 0.30421,0.7588c0.19605,0.2008 0.43132,0.3012 0.70579,0.3012h7.12c0.51904,0 0.99054,-0.1526 1.4145,-0.4578c0.428,-0.30813 0.73233,-0.71693 0.913,-1.2264l1.4789,-4.21675l0.0013,-0.00371c0.09953,-0.28025 0.08767,-0.55486 -0.0356,-0.82385c-0.12093,-0.26393 -0.31437,-0.44528 -0.5803,-0.54407c-0.10533,-0.03828 -0.21593,-0.05742 -0.3318,-0.05742h-4.34766l0.27165,-1.21773c0.22391,-1.00375 0.42616,-1.94205 0.60675,-2.81488c0.04596,-0.24175 0.05087,-0.47666 0.01472,-0.70474c-0.03236,-0.20412 -0.09537,-0.37975 -0.18904,-0.52689c-0.17219,-0.27051 -0.43433,-0.40576 -0.78642,-0.40576c-0.40347,0 -0.70255,0.08529 -0.89723,0.25587c-0.21287,0.18652 -0.39194,0.52819 -0.53721,1.02501l-0.00206,0.00824c-0.27453,1.23969 -0.69874,2.21821 -1.27263,2.93558c-0.34578,0.43391 -0.76365,0.77423 -1.25362,1.02096z"></path></svg>